<?xml version="1.0" encoding="UTF-8" standalone="no"?>
<!-- Created with Inkscape (http://www.inkscape.org/) -->

<svg
   version="1.1"
   id="svg1"
   width="1023.9999"
   height="1024"
   viewBox="0 0 1024 1024"
   sodipodi:docname="favoriteIcon.svg"
   inkscape:version="1.3.1 (9b9bdc1480, 2023-11-25, custom)"
   xmlns:inkscape="http://www.inkscape.org/namespaces/inkscape"
   xmlns:sodipodi="http://sodipodi.sourceforge.net/DTD/sodipodi-0.dtd"
   xmlns="http://www.w3.org/2000/svg"
   xmlns:svg="http://www.w3.org/2000/svg">
  <defs
     id="defs1" />
  <sodipodi:namedview
     id="namedview1"
     pagecolor="#ffffff"
     bordercolor="#000000"
     borderopacity="0.25"
     inkscape:showpageshadow="2"
     inkscape:pageopacity="0.0"
     inkscape:pagecheckerboard="0"
     inkscape:deskcolor="#d1d1d1"
     showgrid="false"
     inkscape:zoom="0.65234375"
     inkscape:cx="513.53293"
     inkscape:cy="470.61078"
     inkscape:window-width="1850"
     inkscape:window-height="1016"
     inkscape:window-x="70"
     inkscape:window-y="27"
     inkscape:window-maximized="1"
     inkscape:current-layer="g1" />
  <g
     inkscape:groupmode="layer"
     inkscape:label="Image"
     id="g1"
     transform="translate(1.211265,-42.085468)">
    <path
       style="fill:#000000"
       d="M -1.211265,554.08547 V 42.085468 H 510.78873 1022.7887 V 554.08547 1066.0855 H 510.78873 -1.211265 Z M 411.93878,944.08546 c 24.07251,-18.6245 29.17327,-24.7546 29.28758,-35.1977 0.0967,-8.8303 -1.1917,-9.1449 -9.05523,-2.2108 -3.68529,3.2497 -11.68942,9.6116 -17.78696,14.1376 l -11.08642,8.2291 -2.6763,-5.2927 c -12.25216,-24.2302 -14.41076,-71.7438 -4.18135,-92.0371 2.04228,-4.0515 6.141,-8.4373 9.54897,-10.2177 2.84693,-1.4873 8.81241,-1.9361 8.78146,-0.6607 -0.01,0.4125 -1.30981,2.6555 -2.88845,4.9844 -4.31038,6.359 -6.49426,16.647 -5.80198,27.3324 0.31381,4.8437 1.04213,9.6878 1.61849,10.7648 0.79237,1.4805 5.68908,4.1684 7.59395,4.1684 0.11295,0 0.4643,-4.3875 0.78078,-9.75 0.90869,-15.3971 5.30258,-26.5691 15.48707,-39.3777 5.72441,-7.1994 28.23154,-29.2024 29.0422,-28.3918 0.22449,0.2245 -3.32557,7.5208 -7.88904,16.2139 -11.88339,22.637 -19.92482,38.5033 -19.92482,39.3129 0,0.9548 12.76383,2.9927 18.74468,2.9927 2.67268,0 10.39015,-1.3744 17.14993,-3.0543 10.92506,-2.7151 12.53021,-2.896 14.44795,-1.6285 4.75097,3.1402 19.74727,16.9211 21.9652,20.1851 l 2.36285,3.4772 2.03407,-2.2397 c 3.67447,-4.046 8.29532,-11.0115 8.29532,-12.5043 0,-0.8054 -6.20633,-7.8254 -13.79186,-15.5999 -14.22309,-14.5776 -19.90852,-21.2685 -18.91579,-22.2613 1.44411,-1.4441 30.14651,17.0877 36.33508,23.4599 1.8621,1.9173 3.53168,3.3015 3.71017,3.0759 4.77412,-6.0334 7.6624,-10.5903 7.6624,-12.0891 0,-3.5746 -3.23162,-6.7974 -18.34881,-18.2988 -15.88325,-12.0841 -26.54567,-21.3118 -23.15119,-20.0358 1.1,0.4135 9.37116,3.3541 18.38036,6.5346 9.0092,3.1806 16.74637,6.3895 17.19372,7.1309 1.61658,2.6794 12.44183,15.7532 13.0826,15.8001 0.36118,0.026 2.08796,-3.3901 3.8373,-7.5922 l 3.18062,-7.6402 -4.8373,-7.0835 c -5.93773,-8.695 -8.40837,-10.3938 -22.05856,-15.1677 -9.11677,-3.1885 -21.78785,-8.022 -33.52874,-12.7901 -1.5125,-0.6142 -2.75,-1.3999 -2.75,-1.7459 0,-1.08 48.38872,-1.8505 49.66801,-0.791 0.6424,0.5321 5.76038,7.0179 11.37328,14.413 5.6129,7.3951 10.51514,13.4456 10.89388,13.4456 0.37873,0 1.97368,-4.0211 3.54433,-8.9358 l 2.85573,-8.9359 -2.84977,-3.7362 c -1.56736,-2.055 -7.60529,-8.6206 -13.41761,-14.5904 -9.6377,-9.8987 -10.8319,-10.81 -13.56785,-10.3538 -1.65,0.2752 -12.9,1.4558 -25,2.6236 -14.53353,1.4026 -23.17853,2.6841 -25.47255,3.7759 -1.98905,0.9466 -7.31775,6.1383 -12.47338,12.1526 -4.95046,5.775 -17.98993,19.3486 -28.9766,30.1636 l -19.97575,19.6637 -4.89611,-4.4021 c -2.69285,-2.4211 -6.65324,-4.9284 -8.80086,-5.5719 -19.5125,-5.8461 -35.67455,32.1949 -31.9419,75.1824 1.15751,13.3307 3.91456,27.2718 7.68327,38.8507 3.49276,10.7312 14.22769,32.2959 15.88866,31.9178 0.73499,-0.1673 6.86186,-4.5792 13.61527,-9.8042 z m 64.03653,-42.75 c 1.40842,-1.5125 5.52038,-7.2133 9.13768,-12.6685 l 6.57692,-9.9184 -2.84041,-3.5816 c -1.56223,-1.9698 -3.75386,-4.406 -4.87029,-5.4138 -1.96943,-1.7778 -2.16145,-1.7741 -6.44858,0.1223 -4.64275,2.0537 -18.35067,10.768 -19.26457,12.2467 -0.29334,0.4746 0.44419,1.3861 1.63895,2.0255 2.94837,1.578 10.77739,8.8706 12.02437,11.2006 0.59718,1.1159 -2.19031,-0.3302 -6.81508,-3.5353 -7.80318,-5.4079 -18.75936,-10.627 -19.90461,-9.4818 -1.94044,1.9405 3.47485,9.2105 10.41999,13.9889 4.40188,3.0286 14.47371,7.6915 16.72196,7.7417 0.5846,0.013 2.21525,-1.2138 3.62367,-2.7263 z m 118.16185,-14.8877 c 12.43813,-3.5408 36.61532,-12.5058 47.65157,-17.6694 33.7025,-15.7686 67.08781,-39.546 94.34402,-67.1929 51.05609,-51.7879 83.24096,-117.83104 93.81115,-192.49999 2.10489,-14.86911 1.79721,-66.19458 -0.48855,-81.5 -7.97742,-53.41653 -26.31333,-100.35272 -56.44981,-144.5 -21.56852,-31.59599 -51.72549,-62.37248 -82.51236,-84.20745 -20.39293,-14.46328 -42.86966,-26.77717 -63.46217,-34.76779 -10.845,-4.20824 -11.29147,-4.49957 -12.17817,-7.94658 -0.50625,-1.968 -2.75888,-10.71233 -5.00585,-19.43185 -5.40555,-20.97655 -11.70485,-40.24757 -20.23263,-61.89633 l -6.99199,-17.75 h -4.81745 c -13.89589,0 -41.16987,6.90514 -59.39443,15.0373 l -10.98462,4.90156 -3.06857,-1.87848 c -5.05652,-3.09544 -22.45707,-9.99858 -31.88455,-12.64922 -9.35155,-2.6293 -25.68684,-5.39543 -31.9206,-5.40526 -4.25762,-0.007 -3.21226,-1.77077 -12.44092,20.9941 -6.45621,15.92591 -16.75079,48.82694 -21.39523,68.37823 l -3.29679,13.87822 -3.56524,1.44206 c -7.4226,3.00228 -19.95377,9.00802 -30.56524,14.64884 -69.35017,36.865 -127.09006,103.12454 -154.81006,177.65265 -40.70208,109.43182 -20.27107,230.43351 54.69005,323.89919 10.35368,12.9095 30.39606,34.2096 38.86528,41.3041 l 4.74526,3.975 4.75474,-4.189 c 2.6151,-2.304 7.59208,-6.0559 11.05996,-8.3376 l 6.30523,-4.1485 -6.30523,-5.398 c -3.46788,-2.9689 -12.83023,-11.984 -20.80523,-20.0334 -34.12233,-34.4411 -58.03528,-74.2915 -73.62343,-122.69188 l -4.77714,-14.8328 3.06699,-11.52355 c 4.94751,-18.58922 18.42678,-64.46087 19.16804,-65.23126 0.37451,-0.38923 13.05247,-5.39762 28.17324,-11.12975 51.15398,-19.39196 54.9923,-20.90009 54.9923,-21.60723 0,-0.38832 -4.32235,-3.57121 -9.60523,-7.07311 -5.28287,-3.50189 -9.81373,-6.91042 -10.06856,-7.5745 -0.51279,-1.33632 7.67066,-14.96114 17.42247,-29.00707 12.69812,-18.28962 27.93081,-36.30411 45.63888,-53.97351 17.46099,-17.42283 25.3276,-24.20027 47.36244,-40.80481 5.6375,-4.24819 10.25,-8.05408 10.25,-8.45754 0,-0.40346 -1.2375,-1.47285 -2.75,-2.37641 -1.5125,-0.90357 -5.14154,-4.03409 -8.06453,-6.95672 -9.43041,-9.42921 -15.12961,-24.63698 -15.16811,-40.47466 -0.0142,-5.85739 -0.33233,-7.26992 -1.76736,-7.8481 -0.9625,-0.3878 -8.05,-2.86955 -15.75,-5.515 -16.11097,-5.53517 -36.87645,-14.2311 -40.43517,-16.93298 l -2.43516,-1.84885 5.63775,-3.60643 c 8.58013,-5.48864 31.62635,-16.60545 46.89579,-22.62113 l 13.6632,-5.38287 1.67935,-7.05081 c 7.40382,-31.08527 26.5699,-91.02648 30.29738,-94.75396 1.78955,-1.78955 29.84756,5.3684 46.53493,11.87165 l 9.66193,3.76536 v 24.14491 24.14491 l 32.25,0.58009 c 29.77757,0.53561 48.88394,1.74731 56.19739,3.56396 3.23901,0.80457 2.71036,-0.55987 8.57508,22.13226 1.63468,6.325 2.97391,11.95 2.97606,12.5 0.003,0.64311 -6.68815,0.88046 -18.7473,0.66505 -34.3755,-0.61404 -71.82629,3.20194 -112.12511,11.4248 -16.40323,3.34703 -52.79207,13.81698 -62.72598,18.04779 l -3.90014,1.66105 3,0.84896 c 24.43883,6.91582 64.22621,11.58965 89.21306,10.47987 34.49006,-1.53186 59.21752,-6.5975 113.63867,-23.2799 l 24.85172,-7.61811 6.13188,2.88524 c 7.57583,3.56468 25.68719,13.24768 27.5046,14.70498 1.04063,0.83443 0.14717,1.60693 -4,3.45843 -14.78955,6.60279 -43.794,17.14106 -55.58993,20.19766 l -4.25,1.10127 v 9.56711 c 0,18.95495 -6.96706,34.46271 -19.53896,43.49116 -2.45357,1.76203 -4.46104,3.51431 -4.46104,3.89398 0,0.37966 5.37487,4.36234 11.94415,8.8504 21.3972,14.6183 34.23813,25.27823 53.13188,44.10757 22.56024,22.48332 37.26353,41.02507 55.20826,69.621 3.14364,5.00957 5.71571,9.53815 5.71571,10.06352 0,0.52537 -4.26839,3.85163 -9.4853,7.39169 -5.21692,3.54007 -9.48326,6.66148 -9.48075,6.93648 0.004,0.43188 75.33877,28.26986 88.0407,32.53309 l 4.57464,1.53542 9.26933,28.39605 9.26932,28.39605 -4.69001,17.3197 c -8.41305,31.06843 -16.63943,53.08168 -26.37958,70.58998 -18.95171,34.0665 -36.60012,56.7714 -62.61835,80.5596 -32.89387,30.0744 -69.10134,50.9418 -112.14992,64.6353 l -13.14992,4.1828 -1.09918,4.176 c -0.60454,2.2968 -2.41867,9.0139 -4.0314,14.9269 l -2.93222,10.7508 4.18132,-0.6332 c 2.29973,-0.3483 9.51311,-2.151 16.02975,-4.0062 z m -228.23177,-93.0356 c 1.75845,-0.3517 2.88325,-1.2107 2.88311,-2.2017 -1.2e-4,-0.8937 -3.60136,-14.675 -8.00274,-30.625 -4.40139,-15.95 -10.55446,-38.5593 -13.67349,-50.2429 -3.11904,-11.6837 -5.80309,-21.1109 -5.96456,-20.9494 -0.16147,0.1615 1.43045,10.1708 3.53759,22.2429 2.10715,12.0722 6.02052,35.8098 8.69638,52.7503 l 4.86521,30.8009 2.38759,-0.5992 c 1.31317,-0.3296 3.68508,-0.8588 5.27091,-1.1759 z m 81.58573,-16.5229 c 2.12745,-2.062 3.29761,-4.1546 3.29761,-5.8973 0,-1.4857 -1.8228,-13.6599 -4.05066,-27.0538 -8.01316,-48.1754 -16.03139,-100.12245 -21.97268,-142.35269 -3.32727,-23.65 -6.23936,-43.9 -6.47131,-45 -0.38791,-1.83961 -8.8767,-12.18946 -34.86026,-42.50288 -14.23481,-16.60689 -13.41096,-14.31354 -8.47643,-23.59581 13.45817,-25.31597 32.00079,-50.58951 54.6941,-74.54794 9.07762,-9.58368 11.35414,-12.69818 6.71501,-9.18678 -42.78836,32.38693 -65.32168,56.25843 -91.16249,96.57633 l -8.49682,13.25708 3.14049,2.5 c 1.72726,1.375 6.80811,5.39767 11.29076,8.93927 11.45189,9.04777 47.65029,40.23238 47.65029,41.05032 0,0.37278 -5.9625,3.52283 -13.25,7.00012 -7.2875,3.47728 -23.56735,11.23254 -36.17745,17.2339 -12.6101,6.00136 -23.7404,11.48097 -24.73399,12.17691 -2.07949,1.45654 -3.87289,-0.20087 18.16144,16.78425 36.54478,28.17045 71.52935,56.00915 71.77915,57.11767 0.15889,0.7051 -4.47235,3.5649 -10.75,6.63815 -6.06603,2.9697 -11.02915,5.9086 -11.02915,6.5309 0,0.6223 3.44235,6.7333 7.64968,13.58 10.57019,17.2011 20.96904,34.6799 27.3367,45.9485 2.95254,5.225 7.53847,13.1625 10.19094,17.6389 2.65247,4.4764 4.82268,8.6389 4.82268,9.25 0,1.8288 1.22446,1.2859 4.70239,-2.0851 z m 117.89718,-23.2631 c -0.38592,-1.5376 -2.9968,-3.9939 -7.14219,-6.7194 -3.59365,-2.3627 -6.07741,-4.4479 -5.51948,-4.6339 2.06273,-0.6876 11.4961,5.4453 15.46538,10.0545 2.25319,2.6164 4.38544,4.7574 4.73831,4.7576 1.67882,10e-4 1.84101,-5.379 0.23681,-7.8554 -3.42964,-5.2942 -12.81027,-12.0154 -17.92923,-12.846 -3.72643,-0.6048 -7.44917,1.6205 -7.44917,4.4526 0,0.7924 -0.7875,2.7779 -1.75,4.4123 -1.67465,2.8436 -1.67161,3.0156 0.0706,3.9935 2.84431,1.5965 13.08856,10.0412 13.98503,11.5283 1.34456,2.2304 6.05229,-4.1226 5.29394,-7.1441 z m 76.56246,-2.9558 c 26.15839,-5.0444 52.01835,-22.3549 70.90964,-47.4666 10.4246,-13.8571 17.59386,-28.0439 24.37327,-48.23071 3.02692,-9.01317 5.5151,-15.91017 5.52928,-15.32668 0.0616,2.5328 -4.09763,30.11622 -6.4574,42.82501 -1.41808,7.63728 -2.43184,14.03238 -2.25279,14.21148 0.55195,0.5519 10.74322,-33.01775 14.24829,-46.93339 1.82367,-7.2402 4.42242,-18.564 5.77502,-25.164 1.3526,-6.6 2.7174,-11.325 3.03288,-10.5 0.31549,0.825 2.15477,8.7 4.0873,17.5 1.93252,8.8 5.0969,22.975 7.03196,31.5 1.93506,8.525 3.55824,16.625 3.60708,18 0.0821,2.31272 0.15653,2.35018 0.99299,0.5 0.94,-2.07922 9.91491,-38.71581 11.93407,-48.7162 l 1.15414,-5.7162 -8.13258,-23.83979 -8.13257,-23.83978 -14.68131,-5.38162 c -14.64605,-5.36869 -49.69557,-18.63222 -68.71998,-26.00518 -15.61081,-6.05002 -25.34522,-7.61742 -38.8642,-6.2578 -25.6195,2.57659 -48.82404,14.36939 -68.68793,34.90794 -14.70352,15.20293 -25.23986,31.96872 -31.75828,50.53489 -4.43066,12.61969 -6.15091,23.19023 -6.15091,37.79598 0,27.16865 9.31114,47.72685 27.33875,60.36145 12.25641,8.5899 22.47193,11.2148 40.44136,10.3913 25.56813,-1.1718 48.35765,-12.1618 69.61046,-33.5691 11.60492,-11.6893 19.47749,-22.48212 26.01562,-35.66589 5.03933,-10.16151 10.59381,-25.7869 10.59381,-29.8016 0,-3.32353 1.82553,-1.60914 4.84668,4.5516 1.68571,3.4375 3.37293,7.15 3.74938,8.25 2.11658,6.18476 4.18199,-19.96138 2.40934,-30.5 -1.54662,-9.19491 -5.08053,-20.24809 -8.99824,-28.14427 -3.44376,-6.94096 -2.49086,-6.77874 2.87894,0.49008 8.37928,11.34262 12.06816,21.47214 12.82696,35.2223 0.90665,16.42952 -2.29788,29.37479 -12.45481,50.31346 -9.19331,18.95212 -24.73856,37.51072 -41.34805,49.36302 -8.80013,6.2796 -25.57449,14.2093 -35.9102,16.9756 -6.97103,1.8658 -11.01831,2.2689 -22.5,2.2411 -13.19079,-0.032 -16.84106,-0.5482 -29,-4.1016 -3.57501,-1.0448 -0.33351,1.3468 6.21948,4.5888 3.42071,1.6923 8.59571,3.7166 11.5,4.4984 6.89259,1.8555 23.67209,1.9258 32.94255,0.138 z m -46.30633,-30.0296 c -36.8015,-7.6997 -52.01565,-50.14495 -34.21036,-95.44193 3.81492,-9.70523 13.46832,-25.50179 21.02701,-34.40803 20.55815,-24.22322 53.07985,-38.69061 78.20927,-34.79165 30.59548,4.74705 49.55495,32.08113 45.34917,65.3804 -1.45795,11.54332 -5.16489,24.51665 -9.79048,34.26416 -7.96957,16.79427 -23.90967,36.55875 -38.30528,47.49555 -7.85291,5.9661 -24.19922,14.1889 -32.63503,16.4166 -8.57305,2.264 -21.7106,2.7448 -29.6443,1.0849 z m 26.55674,-17.0544 c 22.34112,-4.733 45.34501,-24.08241 58.25546,-49.00089 14.04154,-27.10162 13.3186,-56.29998 -1.76796,-71.40545 -12.0173,-12.03236 -30.92239,-14.2291 -51.63743,-6.00021 -23.8919,9.49088 -44.61348,32.97767 -53.29381,60.40566 -2.78094,8.78718 -3.81182,27.11722 -1.9896,35.37705 2.56005,11.6043 10.50241,23.21784 18.81984,27.51894 8.63929,4.4676 19.94144,5.5776 31.6135,3.1049 z m -19.40495,-14.5642 c -7.53584,-4.15334 -10.5807,-7.32432 -14.31322,-14.90614 -3.05808,-6.21185 -3.19382,-7.00103 -3.1838,-18.50952 0.009,-10.57376 0.34726,-12.98419 2.80777,-20.02103 8.48727,-24.2728 26.78774,-42.2994 48.76172,-48.03198 11.4172,-2.97853 25.15891,-0.8992 32.42004,4.90563 1.88473,1.50672 1.80748,1.53458 -1.34041,0.48327 -5.12548,-1.71177 -21.42931,-0.47775 -29.09515,2.20219 -14.21258,4.96863 -31.46203,20.60679 -38.12157,34.56059 -10.49298,21.98606 -8.66046,43.88616 4.82229,57.63029 2.56281,2.6125 4.22657,4.7419 3.69725,4.7319 -0.52933,-0.01 -3.43404,-1.3803 -6.45492,-3.0452 z M 480.63169,623.08547 c 1.68347,-7.425 5.34866,-22.275 8.14488,-33 2.79621,-10.725 5.59989,-21.81075 6.2304,-24.635 l 1.14639,-5.13501 -5.67782,-6.36499 c -3.1228,-3.50075 -5.67984,-6.7595 -5.68232,-7.24167 -0.002,-0.48216 -3.09764,3.11784 -6.87815,8 -8.22798,10.62564 -20.78164,24.0547 -21.66286,23.17348 -0.98761,-0.98761 2.77669,-8.62373 8.03367,-16.29681 5.33883,-7.79256 17.44881,-22.75561 30.16661,-37.27377 4.61316,-5.2662 8.03851,-9.91802 7.6119,-10.33738 -2.2001,-2.16268 -27.87943,-21.88852 -28.49493,-21.88867 -2.04798,-5.1e-4 -35.78073,58.80863 -35.78073,62.37955 0,2.8585 27.5068,119.9187 29.75323,126.62027 0.27655,0.825 2.64618,-8.85 5.26584,-21.5 2.61967,-12.65 6.14042,-29.075 7.82389,-36.5 z m 60.61243,-8.47563 c 3.2554,-8.65139 8.23145,-17.71474 15.1953,-27.67663 2.94212,-4.20875 5.34931,-8.09758 5.34931,-8.64185 0,-0.54427 -1.96527,-3.17575 -4.36726,-5.84774 -5.39908,-6.00595 -19.50484,-23.32616 -20.63971,-25.34312 -0.6773,-1.20376 -1.27355,-0.9197 -3.14855,1.5 -1.27216,1.64173 -4.30579,5.13489 -6.7414,7.76257 l -4.42839,4.77759 6.6936,24.72241 c 3.68148,13.59732 7.21946,27.29511 7.86219,30.43953 0.64273,3.14442 1.26568,5.61942 1.38434,5.5 0.11866,-0.11942 1.39692,-3.35616 2.84057,-7.19276 z m 42.51231,-68.02437 c 1.9002,-20.28096 1.23951,-39.63642 -2.52595,-74 -2.22755,-20.32856 -1.97208,-19.75933 -5.60502,-12.48919 -5.56504,11.13663 -21.99783,26.89695 -46.83673,44.92004 -6.325,4.58942 -11.67653,8.4965 -11.8923,8.6824 -0.43729,0.37678 4.67155,6.54097 18.96837,22.88675 10.69909,12.23243 24.91525,30.64875 27.46516,35.57974 l 1.65845,3.20707 8.86869,-8.8934 8.86869,-8.89341 z m 86.05539,-17.41569 c 5.7623,-3.80362 11.95801,-8.19112 13.76824,-9.75 l 3.29133,-2.83431 -4.67808,-7.82295 C 660.201,471.98578 629.68938,438.5248 596.05404,414.29673 c -3.97907,-2.86619 -7.57019,-5.21126 -7.98025,-5.21126 -0.41006,0 3.32705,4.1625 8.30469,9.25 20.17247,20.61769 33.96504,38.83403 51.59409,68.14215 l 7.75473,12.89215 -2.57122,3.10785 c -1.41418,1.70932 -6.8656,7.49535 -12.11429,12.85785 -5.24868,5.3625 -9.33813,9.75 -9.08767,9.75 0.25046,0 3.22472,-1.08529 6.60946,-2.41176 3.38474,-1.32647 9.20756,-3.1018 12.93961,-3.94517 7.58142,-1.71326 22.28554,-3.24472 22.28554,-2.32107 0,0.32882 -2.29452,2.74411 -5.09892,5.3673 -2.80441,2.6232 -6.89632,6.91623 -9.09312,9.54007 -5.833,6.96688 -2.54207,6.27582 10.21513,-2.14506 z m -144.99657,-35.1215 c 23.8347,-18.54158 39.03495,-32.41499 43.15584,-39.38875 0.80863,-1.36842 -0.2027,-20.59784 -1.07928,-20.52163 -0.3317,0.0288 -2.85308,2.82189 -5.60308,6.20679 -10.2859,12.66064 -38.28002,44.68524 -52.80215,60.40437 -2.79754,3.02813 -2.95426,5.33641 -0.36231,5.33641 0.66963,0 8.18057,-5.41673 16.69098,-12.03719 z m 9.07968,-39.35719 c 4.53763,-3.5055 29.86878,-30.45275 34.3579,-36.5499 1.39474,-1.89435 2.5359,-4.40861 2.5359,-5.58723 0,-1.17863 1.12627,-8.4037 2.50282,-16.05572 1.37655,-7.65203 2.72632,-15.26532 2.99948,-16.91843 0.36212,-2.19149 1.37329,-3.39369 3.733,-4.4382 4.62408,-2.04682 11.953,-9.7537 14.54811,-15.29838 2.39322,-5.11332 5.02692,-22.2037 3.88162,-25.18829 -0.61891,-1.61287 -0.92977,-1.50452 -2.92872,1.02084 -3.95812,5.00047 -9.66163,12.81275 -11.98021,16.40969 l -2.2561,3.5 -0.28223,-11.80716 c -0.27908,-11.67528 -0.307,-11.7996 -2.5,-11.13021 -5.59675,1.70834 -8.81861,3.65833 -17.01268,10.29668 -4.8372,3.91882 -9.9854,7.42392 -11.44046,7.78912 -1.4637,0.36737 -8.37093,-0.3679 -15.46176,-1.64589 -7.04892,-1.27043 -15.59957,-2.35322 -19.00145,-2.40621 l -6.18525,-0.0963 -1.27765,8 c -3.41215,21.3651 -4.23859,27.99686 -3.56817,28.63256 0.40131,0.38051 4.32965,1.23525 8.72965,1.89941 11.71591,1.76845 11.48818,1.51093 5.76408,6.51824 -2.81021,2.4583 -7.22305,7.27767 -9.8063,10.70971 l -4.69684,6.24008 7.36953,0.55656 c 4.05324,0.30611 8.97806,1.33241 10.94403,2.28066 4.14904,2.00122 10.65728,7.23168 9.9255,7.97679 -0.275,0.28001 -2.975,0.0527 -6,-0.50517 -7.09491,-1.30841 -27.77099,-0.58291 -30.83296,1.08189 -2.27552,1.23721 -2.28783,1.31913 -0.5,3.32687 2.63015,2.95368 7.53916,4.77379 13.05084,4.83884 5.38089,0.0635 11.44463,1.8692 12.00033,3.57352 0.21973,0.6739 -1.55034,1.4177 -4.38559,1.84287 -6.33268,0.94964 -15.34036,4.38376 -15.99871,6.09939 -0.84019,2.18952 3.28425,7.9091 7.91513,10.97632 4.58879,3.03934 15.93885,7.39614 19.35716,7.43037 1.15841,0.0116 4.08341,-1.50638 6.5,-3.37329 z"
       id="path1" />
  </g>
</svg>
